<mxfile host="app.diagrams.net" modified="2023-06-29T06:59:45.592Z" agent="Mozilla/5.0 (Macintosh; Intel Mac OS X 10_15_7) AppleWebKit/537.36 (KHTML, like Gecko) Chrome/114.0.0.0 Safari/537.36" version="21.5.1" etag="JWHkpfg2X_V2hBsOjupZ" type="github">
  <diagram name="Page-1" id="_PAvNjqJ0X_lYnLvo-Lo">
    <mxGraphModel>
      <root>
        <mxCell id="0" />
        <mxCell id="1" parent="0" />
      </root>
    </mxGraphModel>
  </diagram>
</mxfile>
